<svg width="20" height="20" viewBox="0 0 20 20" fill="none" xmlns="http://www.w3.org/2000/svg">
<path fill-rule="evenodd" clip-rule="evenodd" d="M3.3475 14.3675C3.47725 14.4977 3.57667 14.655 3.63868 14.8281C3.70069 15.0011 3.72376 15.1857 3.70625 15.3687C3.6184 16.2157 3.45185 17.0527 3.20875 17.8687C4.9525 17.465 6.0175 16.9975 6.50125 16.7525C6.77563 16.6135 7.09161 16.5806 7.38875 16.66C8.24054 16.8871 9.11846 17.0014 10 17C14.995 17 18.75 13.4913 18.75 9.5C18.75 5.51 14.995 2 10 2C5.005 2 1.25 5.51 1.25 9.5C1.25 11.335 2.02125 13.0375 3.3475 14.3675ZM2.73125 19.2487C2.43509 19.3075 2.13796 19.3612 1.84 19.41C1.59 19.45 1.4 19.19 1.49875 18.9575C1.60974 18.6957 1.71147 18.4302 1.80375 18.1612L1.8075 18.1488C2.1175 17.2487 2.37 16.2138 2.4625 15.25C0.92875 13.7125 0 11.7 0 9.5C0 4.6675 4.4775 0.75 10 0.75C15.5225 0.75 20 4.6675 20 9.5C20 14.3325 15.5225 18.25 10 18.25C9.00956 18.2513 8.02323 18.1227 7.06625 17.8675C6.41625 18.1963 5.0175 18.795 2.73125 19.2487Z" fill="#69727D"/>
</svg>
